<svg id="Capa_1" enable-background="new 0 0 301.906 301.906" height="512" viewBox="0 0 301.906 301.906" width="512" xmlns="http://www.w3.org/2000/svg"><g><path d="m100.494 244.046-93.98 19.836 93.98 19.837 94.024-19.837z" fill="#fcd462"/><path d="m102.905 138.73h91.613v125.152l-94.024 19.837-16.96-120.331z" fill="#ce412d"/><path d="m98.126 138.73h-91.612v125.152l93.98 19.837v-125.153z" fill="#d15241"/><path d="m100.494 118.893-93.98 19.837 93.98 19.836 94.024-19.836z" fill="#e56353"/><path d="m29.776 138.73 70.718-15.185 69.915 14.127-69.915 13.873z" fill="#ebf0f3"/><path d="m110.476 167.491.085 101.171 74.017-13.662v-101.975z" fill="#e1e6e9"/><path d="m91.232 167.491-.043 101.171-75.54-14.381v-101.256z" fill="#e1e6e9"/><path d="m37.093 173.835c4.786.393 9.519 1.272 14.127 2.622 6.313 1.375 12.045 4.67 16.411 9.432 3.266 3.512 5.053 8.147 4.991 12.942.243 5.903-4.257 10.928-10.151 11.335 7.491 4.009 12.219 11.765 12.35 20.26.313 4.486-1.581 8.843-5.075 11.674-4.23 3.003-10.912 3.045-20.64.254-4.092-1.147-8.104-2.56-12.012-4.23zm7.74 28.972 7.021 1.988c8.163 2.326 12.942-.973 12.942-7.317 0-7.655-5.329-12.181-13.112-14.381-2.224-.715-4.523-1.17-6.852-1.353zm0 31.384c2.096.903 4.259 1.638 6.471 2.199 7.994 2.284 15.353 1.142 15.353-8.459s-7.021-14.592-15.438-16.918l-6.387-1.776v24.954z" fill="#3a556a"/><path d="m201.412 262.233-94.023 19.836 94.023 19.837 93.981-19.837z" fill="#fcd462"/><path d="m203.78 156.874h91.613v125.195l-93.981 19.837-21.064-118.512z" fill="#f7be56"/><path d="m199.001 156.874h-91.612v125.195l94.023 19.837v-125.195z" fill="#e2aa50"/><path d="m201.412 137.038-94.023 19.836 94.023 19.837 93.981-19.837z" fill="#fcd462"/><path d="m130.651 156.874 70.761-15.141 69.872 14.084-69.872 13.915z" fill="#ebf0f3"/><path d="m211.393 185.635.043 101.171 74.059-13.619v-101.974z" fill="#e1e6e9"/><path d="m192.149 185.635-.085 101.171-75.54-14.38v-101.213z" fill="#e1e6e9"/><path d="m178.403 262.402c-5.132 1.102-10.451.971-15.522-.381-16.538-3.637-28.846-17.722-28.846-38.658 0-19.964 12.689-30.791 30.664-26.773 5.018.944 9.777 2.948 13.958 5.879l-1.819 6.344c-3.546-2.569-7.597-4.357-11.885-5.245-13.746-3.045-22.882 4.526-22.882 21.148 0 15.607 8.459 27.45 22.544 30.622 4.073.979 8.32.979 12.393 0z" fill="#3a556a"/><path d="m157.424 125.195-94.023 19.837 94.023 19.836 94.023-19.836z" fill="#fcd462"/><path d="m159.835 19.837h91.612v125.195l-94.023 19.836-7.909-120.204z" fill="#31978c"/><path d="m155.056 19.837h-91.655v125.195l94.023 19.836v-125.195z" fill="#3ea69b"/><path d="m157.424 0-94.023 19.837 94.023 19.836 94.023-19.836z" fill="#44c4a1"/><path d="m86.664 19.837 70.76-15.142 69.915 14.084-69.915 13.915z" fill="#ebf0f3"/><path d="m167.406 48.598.085 101.171 74.017-13.619v-101.975z" fill="#e1e6e9"/><path d="m148.161 48.598-.084 101.171-75.498-14.381v-101.213z" fill="#e1e6e9"/><path d="m99.352 97.28-5.498 19.837-6.683-2.369 17.891-64.501 9.263.423 23.136 81.842-9.897-3.468-7.148-26.308zm19.329-2.622-6.091-22.417c-1.353-4.949-2.242-9.347-3.13-13.619-.888 4.23-1.861 8.459-2.961 12.689l-5.541 19.371z" fill="#3a556a"/></g></svg>